G04*
G04 #@! TF.GenerationSoftware,Altium Limited,Altium Designer,25.4.2 (15)*
G04*
G04 Layer_Physical_Order=1*
G04 Layer_Color=255*
%FSLAX44Y44*%
%MOMM*%
G71*
G04*
G04 #@! TF.SameCoordinates,CC5B27D0-6A48-44B3-9A3A-EAE5C0A25098*
G04*
G04*
G04 #@! TF.FilePolarity,Positive*
G04*
G01*
G75*
%ADD10C,0.2500*%
%ADD13C,0.1500*%
%ADD14C,0.2540*%
G04:AMPARAMS|DCode=16|XSize=0.9mm|YSize=0.95mm|CornerRadius=0.225mm|HoleSize=0mm|Usage=FLASHONLY|Rotation=90.000|XOffset=0mm|YOffset=0mm|HoleType=Round|Shape=RoundedRectangle|*
%AMROUNDEDRECTD16*
21,1,0.9000,0.5000,0,0,90.0*
21,1,0.4500,0.9500,0,0,90.0*
1,1,0.4500,0.2500,0.2250*
1,1,0.4500,0.2500,-0.2250*
1,1,0.4500,-0.2500,-0.2250*
1,1,0.4500,-0.2500,0.2250*
%
%ADD16ROUNDEDRECTD16*%
G04:AMPARAMS|DCode=17|XSize=0.55mm|YSize=0.5mm|CornerRadius=0.0625mm|HoleSize=0mm|Usage=FLASHONLY|Rotation=90.000|XOffset=0mm|YOffset=0mm|HoleType=Round|Shape=RoundedRectangle|*
%AMROUNDEDRECTD17*
21,1,0.5500,0.3750,0,0,90.0*
21,1,0.4250,0.5000,0,0,90.0*
1,1,0.1250,0.1875,0.2125*
1,1,0.1250,0.1875,-0.2125*
1,1,0.1250,-0.1875,-0.2125*
1,1,0.1250,-0.1875,0.2125*
%
%ADD17ROUNDEDRECTD17*%
G04:AMPARAMS|DCode=18|XSize=0.67mm|YSize=0.3mm|CornerRadius=0.0495mm|HoleSize=0mm|Usage=FLASHONLY|Rotation=0.000|XOffset=0mm|YOffset=0mm|HoleType=Round|Shape=RoundedRectangle|*
%AMROUNDEDRECTD18*
21,1,0.6700,0.2010,0,0,0.0*
21,1,0.5710,0.3000,0,0,0.0*
1,1,0.0990,0.2855,-0.1005*
1,1,0.0990,-0.2855,-0.1005*
1,1,0.0990,-0.2855,0.1005*
1,1,0.0990,0.2855,0.1005*
%
%ADD18ROUNDEDRECTD18*%
G04:AMPARAMS|DCode=19|XSize=1mm|YSize=1.6mm|CornerRadius=0.25mm|HoleSize=0mm|Usage=FLASHONLY|Rotation=90.000|XOffset=0mm|YOffset=0mm|HoleType=Round|Shape=RoundedRectangle|*
%AMROUNDEDRECTD19*
21,1,1.0000,1.1000,0,0,90.0*
21,1,0.5000,1.6000,0,0,90.0*
1,1,0.5000,0.5500,0.2500*
1,1,0.5000,0.5500,-0.2500*
1,1,0.5000,-0.5500,-0.2500*
1,1,0.5000,-0.5500,0.2500*
%
%ADD19ROUNDEDRECTD19*%
G04:AMPARAMS|DCode=20|XSize=1.6mm|YSize=1mm|CornerRadius=0.25mm|HoleSize=0mm|Usage=FLASHONLY|Rotation=90.000|XOffset=0mm|YOffset=0mm|HoleType=Round|Shape=RoundedRectangle|*
%AMROUNDEDRECTD20*
21,1,1.6000,0.5000,0,0,90.0*
21,1,1.1000,1.0000,0,0,90.0*
1,1,0.5000,0.2500,0.5500*
1,1,0.5000,0.2500,-0.5500*
1,1,0.5000,-0.2500,-0.5500*
1,1,0.5000,-0.2500,0.5500*
%
%ADD20ROUNDEDRECTD20*%
G04:AMPARAMS|DCode=21|XSize=1.4mm|YSize=1mm|CornerRadius=0.25mm|HoleSize=0mm|Usage=FLASHONLY|Rotation=90.000|XOffset=0mm|YOffset=0mm|HoleType=Round|Shape=RoundedRectangle|*
%AMROUNDEDRECTD21*
21,1,1.4000,0.5000,0,0,90.0*
21,1,0.9000,1.0000,0,0,90.0*
1,1,0.5000,0.2500,0.4500*
1,1,0.5000,0.2500,-0.4500*
1,1,0.5000,-0.2500,-0.4500*
1,1,0.5000,-0.2500,0.4500*
%
%ADD21ROUNDEDRECTD21*%
G04:AMPARAMS|DCode=22|XSize=1mm|YSize=1.1mm|CornerRadius=0.25mm|HoleSize=0mm|Usage=FLASHONLY|Rotation=90.000|XOffset=0mm|YOffset=0mm|HoleType=Round|Shape=RoundedRectangle|*
%AMROUNDEDRECTD22*
21,1,1.0000,0.6000,0,0,90.0*
21,1,0.5000,1.1000,0,0,90.0*
1,1,0.5000,0.3000,0.2500*
1,1,0.5000,0.3000,-0.2500*
1,1,0.5000,-0.3000,-0.2500*
1,1,0.5000,-0.3000,0.2500*
%
%ADD22ROUNDEDRECTD22*%
G04:AMPARAMS|DCode=23|XSize=0.95mm|YSize=1.05mm|CornerRadius=0.2375mm|HoleSize=0mm|Usage=FLASHONLY|Rotation=90.000|XOffset=0mm|YOffset=0mm|HoleType=Round|Shape=RoundedRectangle|*
%AMROUNDEDRECTD23*
21,1,0.9500,0.5750,0,0,90.0*
21,1,0.4750,1.0500,0,0,90.0*
1,1,0.4750,0.2875,0.2375*
1,1,0.4750,0.2875,-0.2375*
1,1,0.4750,-0.2875,-0.2375*
1,1,0.4750,-0.2875,0.2375*
%
%ADD23ROUNDEDRECTD23*%
G04:AMPARAMS|DCode=26|XSize=0.9mm|YSize=1mm|CornerRadius=0.225mm|HoleSize=0mm|Usage=FLASHONLY|Rotation=90.000|XOffset=0mm|YOffset=0mm|HoleType=Round|Shape=RoundedRectangle|*
%AMROUNDEDRECTD26*
21,1,0.9000,0.5500,0,0,90.0*
21,1,0.4500,1.0000,0,0,90.0*
1,1,0.4500,0.2750,0.2250*
1,1,0.4500,0.2750,-0.2250*
1,1,0.4500,-0.2750,-0.2250*
1,1,0.4500,-0.2750,0.2250*
%
%ADD26ROUNDEDRECTD26*%
%ADD33C,0.2413*%
%ADD34C,1.0500*%
%ADD35C,1.3000*%
%ADD36C,1.2700*%
G36*
X278638Y254D02*
X4256D01*
X2032Y1016D01*
Y13904D01*
X3464D01*
X4455Y14101D01*
X5295Y14663D01*
X5857Y15503D01*
X6054Y16494D01*
Y141494D01*
X5857Y142485D01*
X5295Y143325D01*
X4455Y143887D01*
X3464Y144084D01*
X2032D01*
Y162052D01*
X278638D01*
Y254D01*
D02*
G37*
%LPC*%
G36*
X248920Y155777D02*
X137160D01*
X135673Y155481D01*
X134413Y154639D01*
X119935Y140161D01*
X119093Y138901D01*
X118797Y137414D01*
Y114954D01*
X118809Y114939D01*
X118957Y114723D01*
X119094Y114500D01*
X119219Y114270D01*
X119331Y114034D01*
X119432Y113792D01*
X119519Y113545D01*
X119593Y113294D01*
X119654Y113040D01*
X119702Y112782D01*
X119736Y112523D01*
X119757Y112262D01*
X119764Y112000D01*
X119757Y111738D01*
X119736Y111477D01*
X119702Y111218D01*
X119654Y110960D01*
X119593Y110706D01*
X119519Y110455D01*
X119432Y110208D01*
X119331Y109966D01*
X119219Y109730D01*
X119094Y109500D01*
X118957Y109277D01*
X118809Y109061D01*
X118797Y109046D01*
Y99954D01*
X118809Y99939D01*
X118957Y99723D01*
X119094Y99500D01*
X119219Y99270D01*
X119331Y99034D01*
X119432Y98792D01*
X119519Y98545D01*
X119593Y98294D01*
X119654Y98040D01*
X119702Y97782D01*
X119736Y97523D01*
X119757Y97262D01*
X119764Y97000D01*
X119757Y96738D01*
X119736Y96477D01*
X119702Y96218D01*
X119654Y95960D01*
X119593Y95706D01*
X119519Y95455D01*
X119432Y95208D01*
X119331Y94966D01*
X119219Y94730D01*
X119094Y94500D01*
X118957Y94277D01*
X118809Y94061D01*
X118797Y94046D01*
Y91440D01*
X119093Y89953D01*
X119935Y88693D01*
X122475Y86153D01*
X122915Y85859D01*
X123424Y83348D01*
X123337Y82801D01*
X123236Y82700D01*
X121202Y82086D01*
X120368Y81976D01*
X119724Y82620D01*
X119736Y82523D01*
X119757Y82262D01*
X119764Y82000D01*
X119757Y81738D01*
X119736Y81477D01*
X119702Y81218D01*
X119654Y80960D01*
X119593Y80706D01*
X119519Y80455D01*
X119432Y80208D01*
X119331Y79966D01*
X119219Y79730D01*
X119094Y79500D01*
X118957Y79277D01*
X118809Y79061D01*
X118649Y78853D01*
X118479Y78654D01*
X118299Y78464D01*
X118109Y78284D01*
X117910Y78114D01*
X117703Y77955D01*
X117487Y77807D01*
X117264Y77670D01*
X117034Y77545D01*
X116797Y77432D01*
X116556Y77332D01*
X116309Y77245D01*
X116058Y77170D01*
X115803Y77109D01*
X115546Y77062D01*
X115286Y77027D01*
X115025Y77007D01*
X114764Y77000D01*
X114356D01*
X123745Y67611D01*
X124163Y67332D01*
X123967Y64856D01*
X121920Y63321D01*
X120433Y63025D01*
X119173Y62183D01*
X114969Y57979D01*
X114473Y57906D01*
X113944Y57932D01*
X113581Y58046D01*
X112202Y58775D01*
X112170Y58836D01*
X112160Y58904D01*
X112073Y59151D01*
X112038Y59209D01*
X112024Y59277D01*
X111924Y59519D01*
X111886Y59576D01*
X111869Y59642D01*
X111757Y59879D01*
X111715Y59934D01*
X111695Y60000D01*
X111570Y60230D01*
X111526Y60283D01*
X111502Y60347D01*
X111365Y60570D01*
X111319Y60621D01*
X111292Y60684D01*
X111143Y60900D01*
X111094Y60948D01*
X111064Y61009D01*
X110904Y61217D01*
X110853Y61262D01*
X110819Y61322D01*
X110649Y61522D01*
X110595Y61564D01*
X110558Y61622D01*
X110378Y61812D01*
X110322Y61852D01*
X110282Y61908D01*
X110185Y62000D01*
X99764D01*
Y72000D01*
X112536D01*
X112518Y72220D01*
X112500Y72286D01*
X112504Y72355D01*
X112470Y72614D01*
X112448Y72679D01*
X112449Y72748D01*
X112401Y73006D01*
X112376Y73069D01*
X112373Y73138D01*
X112312Y73393D01*
X112283Y73455D01*
X112277Y73524D01*
X112202Y73775D01*
X112170Y73836D01*
X112160Y73904D01*
X112073Y74151D01*
X112038Y74209D01*
X112024Y74277D01*
X111924Y74519D01*
X111886Y74576D01*
X111869Y74642D01*
X111757Y74879D01*
X111715Y74934D01*
X111695Y75000D01*
X111570Y75230D01*
X111526Y75283D01*
X111502Y75347D01*
X111365Y75570D01*
X111319Y75621D01*
X111292Y75684D01*
X111143Y75900D01*
X111094Y75948D01*
X111064Y76009D01*
X110904Y76217D01*
X110853Y76262D01*
X110819Y76322D01*
X110649Y76522D01*
X110595Y76564D01*
X110558Y76622D01*
X110378Y76812D01*
X110393Y77000D01*
X99764D01*
Y87000D01*
X114764D01*
X115025Y86993D01*
X115286Y86973D01*
X115384Y86960D01*
X113103Y89241D01*
X111842Y90083D01*
X111626Y90126D01*
X111570Y90230D01*
X111526Y90283D01*
X111502Y90347D01*
X111365Y90570D01*
X111319Y90621D01*
X111292Y90684D01*
X111143Y90900D01*
X111094Y90948D01*
X111064Y91009D01*
X110904Y91217D01*
X110853Y91263D01*
X110819Y91323D01*
X110649Y91522D01*
X110595Y91564D01*
X110558Y91622D01*
X110378Y91812D01*
X110322Y91852D01*
X110282Y91908D01*
X110185Y92000D01*
X99764D01*
Y102000D01*
X112536D01*
X112518Y102220D01*
X112500Y102286D01*
X112504Y102355D01*
X112470Y102614D01*
X112448Y102679D01*
X112449Y102748D01*
X112401Y103006D01*
X112376Y103069D01*
X112373Y103138D01*
X112312Y103392D01*
X112283Y103455D01*
X112277Y103524D01*
X112202Y103775D01*
X112170Y103836D01*
X112160Y103904D01*
X112073Y104150D01*
X112038Y104209D01*
X112024Y104277D01*
X111924Y104519D01*
X111886Y104576D01*
X111869Y104642D01*
X111757Y104879D01*
X111715Y104934D01*
X111695Y105000D01*
X111570Y105230D01*
X111526Y105283D01*
X111502Y105347D01*
X111365Y105570D01*
X111319Y105621D01*
X111292Y105684D01*
X111144Y105900D01*
X111094Y105948D01*
X111064Y106010D01*
X110904Y106217D01*
X110853Y106263D01*
X110819Y106323D01*
X110649Y106522D01*
X110595Y106564D01*
X110558Y106622D01*
X110378Y106812D01*
X110322Y106852D01*
X110282Y106908D01*
X110185Y107000D01*
X99764D01*
Y117000D01*
X112536D01*
X112518Y117220D01*
X112500Y117286D01*
X112504Y117355D01*
X112470Y117614D01*
X112448Y117679D01*
X112449Y117748D01*
X112401Y118006D01*
X112376Y118069D01*
X112373Y118138D01*
X112312Y118392D01*
X112283Y118455D01*
X112277Y118524D01*
X112202Y118775D01*
X112170Y118836D01*
X112160Y118904D01*
X112073Y119150D01*
X112038Y119209D01*
X112024Y119277D01*
X111924Y119519D01*
X111886Y119576D01*
X111869Y119642D01*
X111757Y119879D01*
X111715Y119934D01*
X111695Y120000D01*
X111570Y120230D01*
X111526Y120283D01*
X111502Y120347D01*
X111365Y120570D01*
X111319Y120621D01*
X111292Y120684D01*
X111144Y120900D01*
X111094Y120948D01*
X111064Y121010D01*
X110904Y121217D01*
X110853Y121263D01*
X110819Y121322D01*
X110649Y121522D01*
X110595Y121564D01*
X110558Y121622D01*
X110378Y121812D01*
X110322Y121852D01*
X110282Y121908D01*
X110092Y122088D01*
X110034Y122125D01*
X109992Y122179D01*
X109793Y122349D01*
X109733Y122383D01*
X109687Y122434D01*
X109479Y122594D01*
X109418Y122624D01*
X109370Y122673D01*
X109154Y122822D01*
X109091Y122849D01*
X109040Y122896D01*
X108817Y123032D01*
X108753Y123056D01*
X108700Y123100D01*
X108470Y123225D01*
X108404Y123245D01*
X108349Y123287D01*
X108113Y123399D01*
X108046Y123416D01*
X107989Y123454D01*
X107747Y123554D01*
X107695Y123565D01*
X107431Y123742D01*
X105464Y124133D01*
X97264D01*
Y122000D01*
X87264D01*
Y137000D01*
X87271Y137262D01*
X87291Y137523D01*
X87325Y137782D01*
X87373Y138040D01*
X87434Y138294D01*
X87508Y138545D01*
X87596Y138792D01*
X87696Y139034D01*
X87809Y139270D01*
X87934Y139500D01*
X88070Y139723D01*
X88219Y139939D01*
X88378Y140147D01*
X88548Y140346D01*
X88728Y140535D01*
X88918Y140716D01*
X89117Y140886D01*
X89325Y141045D01*
X89541Y141193D01*
X89764Y141330D01*
X89994Y141455D01*
X90103Y141507D01*
Y141994D01*
X89712Y143961D01*
X89535Y144225D01*
X89524Y144277D01*
X89424Y144519D01*
X89386Y144576D01*
X89369Y144643D01*
X89256Y144879D01*
X89215Y144934D01*
X89195Y145000D01*
X89070Y145230D01*
X89026Y145283D01*
X89002Y145347D01*
X88866Y145570D01*
X88819Y145621D01*
X88792Y145684D01*
X88643Y145900D01*
X88594Y145948D01*
X88564Y146010D01*
X88404Y146217D01*
X88353Y146263D01*
X88319Y146322D01*
X88149Y146522D01*
X88095Y146564D01*
X88058Y146622D01*
X87878Y146812D01*
X87822Y146852D01*
X87782Y146908D01*
X87592Y147088D01*
X87534Y147125D01*
X87492Y147179D01*
X87292Y147349D01*
X87233Y147383D01*
X87187Y147434D01*
X86980Y147594D01*
X86918Y147624D01*
X86870Y147673D01*
X86654Y147822D01*
X86591Y147849D01*
X86540Y147896D01*
X86317Y148032D01*
X86253Y148056D01*
X86200Y148100D01*
X85970Y148225D01*
X85904Y148245D01*
X85849Y148287D01*
X85613Y148399D01*
X85546Y148416D01*
X85489Y148454D01*
X85247Y148554D01*
X85179Y148568D01*
X85120Y148603D01*
X84874Y148691D01*
X84805Y148700D01*
X84745Y148732D01*
X84494Y148807D01*
X84425Y148813D01*
X84363Y148842D01*
X84108Y148903D01*
X84039Y148906D01*
X83975Y148931D01*
X83718Y148979D01*
X83649Y148978D01*
X83584Y149000D01*
X83325Y149034D01*
X83256Y149030D01*
X83190Y149048D01*
X82929Y149069D01*
X82860Y149061D01*
X82793Y149076D01*
X82532Y149083D01*
X82464Y149071D01*
X82396Y149083D01*
X82135Y149076D01*
X82067Y149061D01*
X81999Y149069D01*
X81738Y149048D01*
X81672Y149030D01*
X81603Y149034D01*
X81344Y149000D01*
X81279Y148978D01*
X81210Y148979D01*
X80953Y148931D01*
X80889Y148906D01*
X80820Y148903D01*
X80565Y148842D01*
X80503Y148813D01*
X80434Y148807D01*
X80183Y148732D01*
X80122Y148700D01*
X80055Y148691D01*
X79808Y148603D01*
X79749Y148568D01*
X79681Y148554D01*
X79439Y148454D01*
X79382Y148416D01*
X79315Y148399D01*
X79079Y148287D01*
X79024Y148245D01*
X78958Y148225D01*
X78728Y148100D01*
X78675Y148056D01*
X78611Y148032D01*
X78388Y147896D01*
X78337Y147849D01*
X78274Y147822D01*
X78058Y147673D01*
X78010Y147624D01*
X77948Y147594D01*
X77741Y147434D01*
X77695Y147383D01*
X77635Y147349D01*
X77436Y147179D01*
X77394Y147125D01*
X77336Y147088D01*
X77146Y146908D01*
X77106Y146852D01*
X77050Y146812D01*
X76870Y146622D01*
X76833Y146564D01*
X76779Y146522D01*
X76609Y146323D01*
X76575Y146263D01*
X76524Y146217D01*
X76364Y146009D01*
X75679Y145817D01*
X75347Y145772D01*
X75067Y145744D01*
X74861D01*
X74577Y145773D01*
X74250Y145817D01*
X73564Y146010D01*
X73404Y146217D01*
X73353Y146263D01*
X73319Y146322D01*
X73149Y146522D01*
X73095Y146564D01*
X73058Y146622D01*
X72878Y146812D01*
X72822Y146852D01*
X72782Y146908D01*
X72592Y147088D01*
X72534Y147125D01*
X72492Y147179D01*
X72293Y147349D01*
X72233Y147382D01*
X72187Y147434D01*
X71979Y147594D01*
X71918Y147624D01*
X71870Y147673D01*
X71654Y147822D01*
X71591Y147849D01*
X71540Y147896D01*
X71317Y148032D01*
X71253Y148056D01*
X71200Y148100D01*
X70970Y148225D01*
X70904Y148245D01*
X70849Y148287D01*
X70613Y148399D01*
X70546Y148416D01*
X70489Y148454D01*
X70247Y148554D01*
X70179Y148568D01*
X70120Y148603D01*
X69873Y148691D01*
X69805Y148700D01*
X69745Y148732D01*
X69494Y148807D01*
X69425Y148813D01*
X69363Y148842D01*
X69108Y148903D01*
X69040Y148906D01*
X68976Y148931D01*
X68718Y148979D01*
X68649Y148978D01*
X68584Y149000D01*
X68325Y149034D01*
X68256Y149030D01*
X68190Y149048D01*
X67929Y149069D01*
X67860Y149061D01*
X67793Y149076D01*
X67532Y149083D01*
X67464Y149071D01*
X67396Y149083D01*
X67135Y149076D01*
X67067Y149061D01*
X66999Y149069D01*
X66738Y149048D01*
X66672Y149030D01*
X66603Y149034D01*
X66344Y149000D01*
X66279Y148978D01*
X66210Y148979D01*
X65953Y148931D01*
X65889Y148906D01*
X65820Y148903D01*
X65565Y148842D01*
X65503Y148813D01*
X65434Y148807D01*
X65183Y148732D01*
X65123Y148700D01*
X65054Y148691D01*
X64808Y148603D01*
X64749Y148568D01*
X64681Y148554D01*
X64439Y148454D01*
X64382Y148416D01*
X64315Y148399D01*
X64079Y148286D01*
X64024Y148245D01*
X63958Y148225D01*
X63728Y148100D01*
X63675Y148056D01*
X63611Y148032D01*
X63388Y147896D01*
X63337Y147849D01*
X63274Y147822D01*
X63058Y147673D01*
X63010Y147624D01*
X62948Y147594D01*
X62741Y147434D01*
X62695Y147383D01*
X62635Y147349D01*
X62436Y147179D01*
X62394Y147125D01*
X62336Y147088D01*
X62146Y146908D01*
X62106Y146852D01*
X62050Y146812D01*
X61870Y146622D01*
X61833Y146564D01*
X61779Y146522D01*
X61609Y146322D01*
X61575Y146263D01*
X61524Y146217D01*
X61364Y146010D01*
X60678Y145817D01*
X60350Y145772D01*
X60067Y145744D01*
X59861D01*
X59578Y145772D01*
X59250Y145817D01*
X58564Y146010D01*
X58404Y146217D01*
X58353Y146263D01*
X58319Y146322D01*
X58149Y146522D01*
X58095Y146564D01*
X58058Y146622D01*
X57878Y146812D01*
X57822Y146852D01*
X57782Y146908D01*
X57592Y147088D01*
X57534Y147125D01*
X57492Y147179D01*
X57293Y147349D01*
X57232Y147383D01*
X57187Y147434D01*
X56979Y147594D01*
X56918Y147624D01*
X56870Y147673D01*
X56654Y147822D01*
X56591Y147849D01*
X56540Y147896D01*
X56317Y148032D01*
X56253Y148056D01*
X56200Y148100D01*
X55970Y148225D01*
X55904Y148245D01*
X55849Y148287D01*
X55613Y148399D01*
X55546Y148416D01*
X55489Y148454D01*
X55247Y148554D01*
X55179Y148568D01*
X55120Y148603D01*
X54874Y148691D01*
X54805Y148700D01*
X54745Y148732D01*
X54494Y148807D01*
X54425Y148813D01*
X54363Y148842D01*
X54108Y148903D01*
X54040Y148906D01*
X53976Y148931D01*
X53718Y148979D01*
X53649Y148978D01*
X53584Y149000D01*
X53325Y149034D01*
X53256Y149030D01*
X53190Y149048D01*
X52929Y149069D01*
X52860Y149061D01*
X52793Y149076D01*
X52532Y149083D01*
X52464Y149071D01*
X52396Y149083D01*
X52135Y149076D01*
X52067Y149061D01*
X51999Y149069D01*
X51738Y149048D01*
X51672Y149030D01*
X51603Y149034D01*
X51344Y149000D01*
X51279Y148978D01*
X51210Y148979D01*
X50953Y148931D01*
X50889Y148906D01*
X50820Y148903D01*
X50565Y148842D01*
X50503Y148813D01*
X50434Y148807D01*
X50183Y148732D01*
X50122Y148700D01*
X50054Y148691D01*
X49808Y148603D01*
X49749Y148568D01*
X49681Y148554D01*
X49439Y148454D01*
X49382Y148416D01*
X49315Y148399D01*
X49079Y148287D01*
X49024Y148245D01*
X48958Y148225D01*
X48728Y148100D01*
X48675Y148056D01*
X48611Y148032D01*
X48388Y147896D01*
X48337Y147849D01*
X48274Y147822D01*
X48058Y147673D01*
X48010Y147624D01*
X47948Y147594D01*
X47741Y147434D01*
X47695Y147383D01*
X47635Y147349D01*
X47436Y147179D01*
X47394Y147125D01*
X47336Y147088D01*
X47146Y146908D01*
X47106Y146852D01*
X47050Y146812D01*
X46870Y146622D01*
X46833Y146564D01*
X46779Y146522D01*
X46609Y146322D01*
X46575Y146263D01*
X46524Y146217D01*
X46364Y146010D01*
X45678Y145817D01*
X45350Y145772D01*
X45067Y145744D01*
X44861D01*
X44578Y145772D01*
X44250Y145817D01*
X43564Y146010D01*
X43404Y146217D01*
X43353Y146263D01*
X43319Y146322D01*
X43149Y146522D01*
X43095Y146564D01*
X43058Y146622D01*
X42878Y146812D01*
X42822Y146852D01*
X42782Y146908D01*
X42592Y147088D01*
X42534Y147125D01*
X42491Y147179D01*
X42292Y147349D01*
X42232Y147383D01*
X42187Y147434D01*
X41979Y147594D01*
X41918Y147624D01*
X41870Y147673D01*
X41654Y147822D01*
X41591Y147849D01*
X41540Y147896D01*
X41317Y148032D01*
X41252Y148056D01*
X41200Y148100D01*
X40970Y148225D01*
X40904Y148245D01*
X40849Y148287D01*
X40613Y148399D01*
X40546Y148416D01*
X40489Y148454D01*
X40247Y148554D01*
X40179Y148568D01*
X40120Y148603D01*
X39873Y148691D01*
X39805Y148700D01*
X39745Y148732D01*
X39494Y148807D01*
X39425Y148813D01*
X39363Y148842D01*
X39108Y148903D01*
X39039Y148906D01*
X38976Y148931D01*
X38718Y148979D01*
X38649Y148978D01*
X38584Y149000D01*
X38325Y149034D01*
X38256Y149030D01*
X38190Y149048D01*
X37929Y149069D01*
X37861Y149061D01*
X37793Y149076D01*
X37532Y149083D01*
X37464Y149071D01*
X37396Y149083D01*
X37135Y149076D01*
X37067Y149061D01*
X36999Y149069D01*
X36738Y149048D01*
X36672Y149030D01*
X36603Y149034D01*
X36344Y149000D01*
X36279Y148978D01*
X36210Y148979D01*
X35952Y148931D01*
X35889Y148906D01*
X35820Y148903D01*
X35565Y148842D01*
X35503Y148813D01*
X35434Y148807D01*
X35183Y148732D01*
X35123Y148700D01*
X35055Y148691D01*
X34808Y148603D01*
X34748Y148568D01*
X34681Y148554D01*
X34439Y148454D01*
X34382Y148416D01*
X34315Y148399D01*
X34079Y148287D01*
X34024Y148245D01*
X33958Y148225D01*
X33728Y148100D01*
X33675Y148056D01*
X33611Y148032D01*
X33388Y147896D01*
X33337Y147849D01*
X33274Y147822D01*
X33058Y147673D01*
X33010Y147624D01*
X32948Y147594D01*
X32741Y147434D01*
X32695Y147383D01*
X32635Y147349D01*
X32436Y147179D01*
X32394Y147125D01*
X32336Y147088D01*
X32146Y146908D01*
X32106Y146852D01*
X32050Y146812D01*
X31870Y146622D01*
X31833Y146564D01*
X31779Y146522D01*
X31609Y146322D01*
X31575Y146263D01*
X31524Y146217D01*
X31364Y146010D01*
X30678Y145817D01*
X30350Y145772D01*
X30067Y145744D01*
X29860D01*
X29578Y145772D01*
X29250Y145817D01*
X28564Y146010D01*
X28404Y146217D01*
X28353Y146263D01*
X28319Y146322D01*
X28149Y146522D01*
X28095Y146564D01*
X28058Y146622D01*
X27878Y146812D01*
X27822Y146852D01*
X27782Y146908D01*
X27592Y147088D01*
X27534Y147125D01*
X27492Y147179D01*
X27292Y147349D01*
X27232Y147383D01*
X27187Y147434D01*
X26979Y147594D01*
X26918Y147624D01*
X26870Y147673D01*
X26654Y147822D01*
X26591Y147849D01*
X26540Y147896D01*
X26317Y148032D01*
X26253Y148056D01*
X26200Y148100D01*
X25970Y148225D01*
X25904Y148245D01*
X25849Y148287D01*
X25613Y148399D01*
X25546Y148416D01*
X25489Y148454D01*
X25247Y148554D01*
X25179Y148568D01*
X25120Y148603D01*
X24873Y148691D01*
X24805Y148700D01*
X24745Y148732D01*
X24494Y148807D01*
X24425Y148813D01*
X24363Y148842D01*
X24108Y148903D01*
X24039Y148906D01*
X23976Y148931D01*
X23718Y148979D01*
X23649Y148978D01*
X23584Y149000D01*
X23325Y149034D01*
X23256Y149030D01*
X23190Y149048D01*
X22929Y149069D01*
X22861Y149061D01*
X22793Y149076D01*
X22532Y149083D01*
X22464Y149071D01*
X22396Y149083D01*
X22135Y149076D01*
X22067Y149061D01*
X21999Y149069D01*
X21738Y149048D01*
X21672Y149030D01*
X21603Y149034D01*
X21344Y149000D01*
X21279Y148978D01*
X21210Y148979D01*
X20952Y148931D01*
X20889Y148906D01*
X20820Y148903D01*
X20565Y148842D01*
X20503Y148813D01*
X20434Y148807D01*
X20183Y148732D01*
X20123Y148700D01*
X20055Y148691D01*
X19808Y148603D01*
X19749Y148568D01*
X19681Y148554D01*
X19439Y148454D01*
X19382Y148416D01*
X19315Y148399D01*
X19079Y148287D01*
X19024Y148245D01*
X18958Y148225D01*
X18728Y148100D01*
X18675Y148056D01*
X18611Y148032D01*
X18388Y147896D01*
X18337Y147849D01*
X18274Y147822D01*
X18058Y147673D01*
X18010Y147624D01*
X17948Y147594D01*
X17741Y147434D01*
X17695Y147383D01*
X17635Y147349D01*
X17436Y147179D01*
X17394Y147125D01*
X17336Y147088D01*
X17146Y146908D01*
X17106Y146852D01*
X17050Y146812D01*
X16870Y146622D01*
X16833Y146564D01*
X16779Y146522D01*
X16609Y146322D01*
X16575Y146263D01*
X16524Y146217D01*
X16364Y146010D01*
X16334Y145948D01*
X16285Y145900D01*
X16136Y145684D01*
X16109Y145621D01*
X16063Y145570D01*
X15926Y145347D01*
X15902Y145283D01*
X15858Y145230D01*
X15733Y145000D01*
X15713Y144934D01*
X15671Y144879D01*
X15559Y144643D01*
X15542Y144576D01*
X15504Y144519D01*
X15403Y144277D01*
X15393Y144225D01*
X15216Y143961D01*
X14825Y141994D01*
Y130994D01*
X14874Y130747D01*
Y126494D01*
X15071Y125503D01*
X15633Y124663D01*
X16473Y124101D01*
X17464Y123904D01*
X27264D01*
Y137000D01*
X27271Y137262D01*
X27291Y137523D01*
X27325Y137782D01*
X27373Y138040D01*
X27434Y138294D01*
X27508Y138545D01*
X27596Y138792D01*
X27696Y139034D01*
X27809Y139270D01*
X27934Y139500D01*
X28070Y139723D01*
X28219Y139939D01*
X28378Y140147D01*
X28548Y140346D01*
X28728Y140535D01*
X28918Y140716D01*
X29117Y140886D01*
X29325Y141045D01*
X29541Y141193D01*
X29764Y141330D01*
X29994Y141455D01*
X30230Y141568D01*
X30472Y141668D01*
X30719Y141755D01*
X30970Y141830D01*
X31224Y141891D01*
X31481Y141938D01*
X31741Y141973D01*
X32002Y141993D01*
X32264Y142000D01*
X32525Y141993D01*
X32786Y141973D01*
X33046Y141938D01*
X33303Y141891D01*
X33558Y141830D01*
X33809Y141755D01*
X34056Y141668D01*
X34297Y141568D01*
X34534Y141455D01*
X34764Y141330D01*
X34987Y141193D01*
X35203Y141045D01*
X35410Y140886D01*
X35609Y140716D01*
X35799Y140535D01*
X35979Y140346D01*
X36149Y140147D01*
X36309Y139939D01*
X36457Y139723D01*
X36594Y139500D01*
X36719Y139270D01*
X36831Y139034D01*
X36932Y138792D01*
X37019Y138545D01*
X37093Y138294D01*
X37155Y138040D01*
X37202Y137782D01*
X37236Y137523D01*
X37257Y137262D01*
X37264Y137000D01*
Y123904D01*
X42264D01*
Y137000D01*
X42271Y137262D01*
X42291Y137523D01*
X42325Y137782D01*
X42373Y138040D01*
X42434Y138294D01*
X42508Y138545D01*
X42596Y138792D01*
X42696Y139034D01*
X42809Y139270D01*
X42934Y139500D01*
X43070Y139723D01*
X43219Y139939D01*
X43378Y140147D01*
X43548Y140346D01*
X43728Y140535D01*
X43918Y140716D01*
X44117Y140886D01*
X44325Y141045D01*
X44541Y141193D01*
X44764Y141330D01*
X44994Y141455D01*
X45230Y141568D01*
X45472Y141668D01*
X45719Y141755D01*
X45970Y141830D01*
X46224Y141891D01*
X46481Y141938D01*
X46741Y141973D01*
X47002Y141993D01*
X47264Y142000D01*
X47525Y141993D01*
X47786Y141973D01*
X48046Y141938D01*
X48303Y141891D01*
X48558Y141830D01*
X48809Y141755D01*
X49056Y141668D01*
X49297Y141568D01*
X49534Y141455D01*
X49764Y141330D01*
X49987Y141193D01*
X50203Y141045D01*
X50410Y140886D01*
X50609Y140716D01*
X50799Y140535D01*
X50979Y140346D01*
X51150Y140147D01*
X51309Y139939D01*
X51457Y139723D01*
X51594Y139500D01*
X51719Y139270D01*
X51831Y139034D01*
X51932Y138792D01*
X52019Y138545D01*
X52093Y138294D01*
X52154Y138040D01*
X52202Y137782D01*
X52236Y137523D01*
X52257Y137262D01*
X52264Y137000D01*
Y123904D01*
X57264D01*
Y137000D01*
X57271Y137262D01*
X57291Y137523D01*
X57325Y137782D01*
X57373Y138040D01*
X57434Y138294D01*
X57508Y138545D01*
X57596Y138792D01*
X57696Y139034D01*
X57809Y139270D01*
X57934Y139500D01*
X58070Y139723D01*
X58219Y139939D01*
X58378Y140147D01*
X58548Y140346D01*
X58728Y140535D01*
X58918Y140716D01*
X59117Y140886D01*
X59325Y141045D01*
X59541Y141193D01*
X59764Y141330D01*
X59994Y141455D01*
X60230Y141568D01*
X60472Y141668D01*
X60719Y141755D01*
X60970Y141830D01*
X61224Y141891D01*
X61481Y141938D01*
X61741Y141973D01*
X62002Y141993D01*
X62264Y142000D01*
X62525Y141993D01*
X62786Y141973D01*
X63046Y141938D01*
X63303Y141891D01*
X63558Y141830D01*
X63809Y141755D01*
X64056Y141668D01*
X64297Y141568D01*
X64534Y141455D01*
X64764Y141330D01*
X64987Y141193D01*
X65203Y141045D01*
X65410Y140886D01*
X65609Y140716D01*
X65799Y140535D01*
X65979Y140346D01*
X66149Y140147D01*
X66309Y139939D01*
X66457Y139723D01*
X66594Y139500D01*
X66719Y139270D01*
X66831Y139034D01*
X66932Y138792D01*
X67019Y138545D01*
X67093Y138294D01*
X67154Y138040D01*
X67202Y137782D01*
X67236Y137523D01*
X67257Y137262D01*
X67264Y137000D01*
Y123904D01*
X72264D01*
Y137000D01*
X72271Y137262D01*
X72291Y137523D01*
X72325Y137782D01*
X72373Y138040D01*
X72434Y138294D01*
X72508Y138545D01*
X72596Y138792D01*
X72696Y139034D01*
X72809Y139270D01*
X72934Y139500D01*
X73070Y139723D01*
X73219Y139939D01*
X73378Y140147D01*
X73548Y140346D01*
X73728Y140535D01*
X73918Y140716D01*
X74117Y140886D01*
X74325Y141045D01*
X74541Y141193D01*
X74764Y141330D01*
X74994Y141455D01*
X75230Y141568D01*
X75472Y141668D01*
X75719Y141755D01*
X75970Y141830D01*
X76224Y141891D01*
X76482Y141938D01*
X76741Y141973D01*
X77002Y141993D01*
X77264Y142000D01*
X77525Y141993D01*
X77786Y141973D01*
X78046Y141938D01*
X78303Y141891D01*
X78558Y141830D01*
X78809Y141755D01*
X79056Y141668D01*
X79297Y141568D01*
X79534Y141455D01*
X79764Y141330D01*
X79987Y141193D01*
X80203Y141045D01*
X80410Y140886D01*
X80609Y140716D01*
X80799Y140535D01*
X80979Y140346D01*
X81149Y140147D01*
X81309Y139939D01*
X81457Y139723D01*
X81594Y139500D01*
X81719Y139270D01*
X81832Y139034D01*
X81932Y138792D01*
X82019Y138545D01*
X82093Y138294D01*
X82154Y138040D01*
X82202Y137782D01*
X82236Y137523D01*
X82257Y137262D01*
X82264Y137000D01*
Y123904D01*
X84032D01*
X85600Y121420D01*
X85056Y120379D01*
X55880D01*
X54393Y120083D01*
X53133Y119241D01*
X36115Y102223D01*
X35273Y100963D01*
X34977Y99476D01*
Y61226D01*
Y50800D01*
X35273Y49313D01*
X36115Y48053D01*
X47544Y36624D01*
X47522Y35902D01*
X46679Y33981D01*
X44294Y33326D01*
X43455Y33887D01*
X42464Y34084D01*
X32464D01*
X31473Y33887D01*
X30633Y33325D01*
X30071Y32485D01*
X29874Y31494D01*
Y27240D01*
X29825Y26994D01*
X29579Y26615D01*
X27464Y25084D01*
X25435D01*
X25214Y25128D01*
X19714D01*
X19493Y25084D01*
X17464D01*
X16473Y24887D01*
X15633Y24325D01*
X15071Y23485D01*
X14874Y22494D01*
Y20467D01*
X14830Y20244D01*
Y15744D01*
X15202Y13875D01*
X15567Y13328D01*
X15671Y13109D01*
X15713Y13054D01*
X15733Y12988D01*
X15858Y12758D01*
X15902Y12705D01*
X15926Y12641D01*
X16063Y12418D01*
X16109Y12367D01*
X16136Y12304D01*
X16285Y12088D01*
X16334Y12040D01*
X16364Y11978D01*
X16524Y11771D01*
X16575Y11725D01*
X16609Y11666D01*
X16779Y11466D01*
X16833Y11424D01*
X16870Y11366D01*
X17050Y11176D01*
X17106Y11136D01*
X17146Y11080D01*
X17336Y10900D01*
X17394Y10863D01*
X17436Y10809D01*
X17635Y10639D01*
X17695Y10605D01*
X17741Y10554D01*
X17948Y10394D01*
X18010Y10364D01*
X18058Y10315D01*
X18274Y10166D01*
X18337Y10139D01*
X18388Y10092D01*
X18611Y9956D01*
X18675Y9932D01*
X18728Y9888D01*
X18958Y9763D01*
X19024Y9743D01*
X19079Y9701D01*
X19315Y9589D01*
X19382Y9572D01*
X19439Y9534D01*
X19681Y9434D01*
X19749Y9420D01*
X19808Y9385D01*
X20055Y9298D01*
X20123Y9288D01*
X20183Y9256D01*
X20434Y9181D01*
X20503Y9175D01*
X20565Y9146D01*
X20820Y9085D01*
X20889Y9082D01*
X20952Y9057D01*
X21210Y9009D01*
X21279Y9010D01*
X21344Y8988D01*
X21603Y8954D01*
X21672Y8958D01*
X21738Y8940D01*
X21999Y8919D01*
X22067Y8927D01*
X22135Y8912D01*
X22396Y8905D01*
X22464Y8917D01*
X22532Y8905D01*
X22793Y8912D01*
X22861Y8927D01*
X22929Y8919D01*
X23190Y8940D01*
X23256Y8958D01*
X23325Y8954D01*
X23584Y8988D01*
X23649Y9010D01*
X23718Y9009D01*
X23975Y9057D01*
X24039Y9082D01*
X24108Y9085D01*
X24363Y9146D01*
X24425Y9175D01*
X24494Y9181D01*
X24745Y9256D01*
X24805Y9288D01*
X24873Y9298D01*
X25120Y9385D01*
X25179Y9420D01*
X25247Y9434D01*
X25489Y9534D01*
X25546Y9572D01*
X25613Y9589D01*
X25849Y9701D01*
X25904Y9743D01*
X25970Y9763D01*
X26200Y9888D01*
X26253Y9932D01*
X26317Y9956D01*
X26540Y10092D01*
X26591Y10139D01*
X26654Y10166D01*
X26870Y10315D01*
X26918Y10364D01*
X26979Y10394D01*
X27187Y10554D01*
X27232Y10605D01*
X27292Y10639D01*
X27423Y10751D01*
X27373Y10961D01*
X27325Y11218D01*
X27291Y11477D01*
X27271Y11738D01*
X27264Y12000D01*
Y18000D01*
X37264D01*
Y12000D01*
X37257Y11738D01*
X37236Y11477D01*
X37202Y11218D01*
X37155Y10961D01*
X37093Y10706D01*
X37019Y10455D01*
X36932Y10208D01*
X36831Y9966D01*
X36719Y9730D01*
X36594Y9500D01*
X36457Y9277D01*
X36309Y9061D01*
X36270Y9010D01*
X36279Y9010D01*
X36344Y8988D01*
X36603Y8954D01*
X36672Y8958D01*
X36738Y8940D01*
X36999Y8919D01*
X37067Y8927D01*
X37135Y8912D01*
X37396Y8905D01*
X37464Y8917D01*
X37532Y8905D01*
X37793Y8912D01*
X37861Y8927D01*
X37929Y8919D01*
X38190Y8940D01*
X38256Y8958D01*
X38325Y8954D01*
X38584Y8988D01*
X38649Y9010D01*
X38718Y9009D01*
X38976Y9057D01*
X39039Y9082D01*
X39108Y9085D01*
X39363Y9146D01*
X39425Y9175D01*
X39494Y9181D01*
X39745Y9256D01*
X39806Y9288D01*
X39874Y9298D01*
X40120Y9385D01*
X40179Y9420D01*
X40247Y9434D01*
X40489Y9534D01*
X40546Y9572D01*
X40613Y9589D01*
X40849Y9701D01*
X40904Y9743D01*
X40970Y9763D01*
X41200Y9888D01*
X41253Y9932D01*
X41317Y9956D01*
X41540Y10092D01*
X41591Y10139D01*
X41654Y10166D01*
X41870Y10315D01*
X41918Y10364D01*
X41979Y10394D01*
X42187Y10554D01*
X42232Y10605D01*
X42292Y10639D01*
X42423Y10751D01*
X42373Y10961D01*
X42325Y11218D01*
X42291Y11477D01*
X42271Y11738D01*
X42264Y12000D01*
Y27000D01*
X52264D01*
Y12000D01*
X52257Y11738D01*
X52236Y11477D01*
X52202Y11218D01*
X52154Y10961D01*
X52093Y10706D01*
X52019Y10455D01*
X51932Y10208D01*
X51831Y9966D01*
X51719Y9730D01*
X51594Y9500D01*
X51457Y9277D01*
X51309Y9061D01*
X51270Y9010D01*
X51279Y9010D01*
X51344Y8988D01*
X51603Y8954D01*
X51672Y8958D01*
X51738Y8940D01*
X51999Y8919D01*
X52067Y8927D01*
X52135Y8912D01*
X52396Y8905D01*
X52464Y8917D01*
X52532Y8905D01*
X52793Y8912D01*
X52860Y8927D01*
X52929Y8919D01*
X53190Y8940D01*
X53256Y8958D01*
X53325Y8954D01*
X53584Y8988D01*
X53649Y9010D01*
X53718Y9009D01*
X53976Y9057D01*
X54039Y9082D01*
X54108Y9085D01*
X54363Y9146D01*
X54425Y9175D01*
X54494Y9181D01*
X54745Y9256D01*
X54805Y9288D01*
X54874Y9298D01*
X55120Y9385D01*
X55179Y9420D01*
X55247Y9434D01*
X55489Y9534D01*
X55546Y9572D01*
X55613Y9589D01*
X55849Y9701D01*
X55904Y9743D01*
X55970Y9763D01*
X56200Y9888D01*
X56253Y9932D01*
X56317Y9956D01*
X56540Y10092D01*
X56591Y10139D01*
X56654Y10166D01*
X56870Y10315D01*
X56918Y10364D01*
X56979Y10394D01*
X57187Y10554D01*
X57232Y10605D01*
X57293Y10639D01*
X57423Y10751D01*
X57373Y10961D01*
X57325Y11218D01*
X57291Y11477D01*
X57271Y11738D01*
X57264Y12000D01*
Y27000D01*
X67264D01*
Y12000D01*
X67257Y11738D01*
X67236Y11477D01*
X67202Y11218D01*
X67154Y10961D01*
X67093Y10706D01*
X67019Y10455D01*
X66932Y10208D01*
X66831Y9966D01*
X66719Y9730D01*
X66594Y9500D01*
X66457Y9277D01*
X66309Y9061D01*
X66270Y9010D01*
X66279Y9010D01*
X66344Y8988D01*
X66603Y8954D01*
X66672Y8958D01*
X66738Y8940D01*
X66999Y8919D01*
X67067Y8927D01*
X67135Y8912D01*
X67396Y8905D01*
X67464Y8917D01*
X67532Y8905D01*
X67793Y8912D01*
X67860Y8927D01*
X67929Y8919D01*
X68190Y8940D01*
X68256Y8958D01*
X68325Y8954D01*
X68584Y8988D01*
X68649Y9010D01*
X68718Y9009D01*
X68976Y9057D01*
X69039Y9082D01*
X69108Y9085D01*
X69363Y9146D01*
X69425Y9175D01*
X69494Y9181D01*
X69745Y9256D01*
X69805Y9288D01*
X69873Y9298D01*
X70120Y9385D01*
X70179Y9420D01*
X70247Y9434D01*
X70489Y9534D01*
X70546Y9572D01*
X70613Y9589D01*
X70849Y9701D01*
X70904Y9743D01*
X70970Y9763D01*
X71200Y9888D01*
X71253Y9932D01*
X71317Y9956D01*
X71540Y10092D01*
X71591Y10139D01*
X71654Y10166D01*
X71870Y10315D01*
X71918Y10364D01*
X71979Y10394D01*
X72187Y10554D01*
X72233Y10605D01*
X72293Y10639D01*
X72423Y10751D01*
X72373Y10961D01*
X72325Y11218D01*
X72291Y11477D01*
X72271Y11738D01*
X72264Y12000D01*
Y27000D01*
X82264D01*
Y12000D01*
X82257Y11738D01*
X82236Y11477D01*
X82202Y11218D01*
X82154Y10961D01*
X82093Y10706D01*
X82019Y10455D01*
X81932Y10208D01*
X81832Y9966D01*
X81719Y9730D01*
X81594Y9500D01*
X81457Y9277D01*
X81309Y9061D01*
X81270Y9010D01*
X81279Y9010D01*
X81344Y8988D01*
X81603Y8954D01*
X81672Y8958D01*
X81738Y8940D01*
X81999Y8919D01*
X82067Y8927D01*
X82135Y8912D01*
X82396Y8905D01*
X82464Y8917D01*
X82532Y8905D01*
X82793Y8912D01*
X82860Y8927D01*
X82929Y8919D01*
X83190Y8940D01*
X83256Y8958D01*
X83325Y8954D01*
X83584Y8988D01*
X83649Y9010D01*
X83718Y9009D01*
X83975Y9057D01*
X84039Y9082D01*
X84108Y9085D01*
X84363Y9146D01*
X84425Y9175D01*
X84494Y9181D01*
X84745Y9256D01*
X84805Y9288D01*
X84874Y9298D01*
X85120Y9385D01*
X85179Y9420D01*
X85247Y9434D01*
X85489Y9534D01*
X85546Y9572D01*
X85613Y9589D01*
X85849Y9701D01*
X85904Y9743D01*
X85970Y9763D01*
X86200Y9888D01*
X86253Y9932D01*
X86317Y9956D01*
X86540Y10092D01*
X86591Y10139D01*
X86654Y10166D01*
X86870Y10315D01*
X86918Y10364D01*
X86980Y10394D01*
X87187Y10554D01*
X87233Y10605D01*
X87292Y10639D01*
X87423Y10751D01*
X87373Y10961D01*
X87325Y11218D01*
X87291Y11477D01*
X87271Y11738D01*
X87264Y12000D01*
Y27000D01*
X90102D01*
X90054Y27241D01*
Y31494D01*
X91525Y33609D01*
X91963Y33904D01*
X94218D01*
X94464Y33855D01*
X99764D01*
Y42000D01*
X114764D01*
X115025Y41993D01*
X115286Y41973D01*
X115546Y41938D01*
X115803Y41891D01*
X116058Y41830D01*
X116309Y41755D01*
X116556Y41668D01*
X116797Y41568D01*
X117034Y41455D01*
X117126Y41405D01*
X117889Y42547D01*
X118185Y44034D01*
Y48356D01*
X118109Y48284D01*
X117910Y48114D01*
X117703Y47955D01*
X117487Y47807D01*
X117264Y47670D01*
X117034Y47545D01*
X116797Y47432D01*
X116556Y47332D01*
X116309Y47245D01*
X116058Y47170D01*
X115803Y47109D01*
X115546Y47062D01*
X115286Y47027D01*
X115025Y47007D01*
X114764Y47000D01*
X99764D01*
Y57000D01*
X114764D01*
X115025Y56993D01*
X115286Y56973D01*
X115546Y56938D01*
X115803Y56891D01*
X116058Y56830D01*
X116309Y56755D01*
X116556Y56668D01*
X116797Y56568D01*
X117034Y56455D01*
X117264Y56330D01*
X117487Y56193D01*
X117703Y56045D01*
X117910Y55886D01*
X118109Y55716D01*
X118299Y55535D01*
X118479Y55346D01*
X118649Y55147D01*
X118809Y54939D01*
X118957Y54723D01*
X119094Y54500D01*
X119219Y54270D01*
X119331Y54034D01*
X119432Y53792D01*
X119519Y53545D01*
X119593Y53294D01*
X119654Y53040D01*
X119702Y52782D01*
X119736Y52523D01*
X119757Y52262D01*
X119764Y52000D01*
X119758Y51780D01*
X120468Y52490D01*
X123007Y51438D01*
Y41000D01*
X121993Y40798D01*
X120408Y39739D01*
X119547Y38450D01*
X119593Y38294D01*
X119654Y38040D01*
X119702Y37782D01*
X119736Y37523D01*
X119757Y37262D01*
X119764Y37000D01*
X119757Y36738D01*
X119736Y36477D01*
X119702Y36218D01*
X119654Y35961D01*
X119593Y35706D01*
X119519Y35455D01*
X119432Y35208D01*
X119331Y34966D01*
X119219Y34730D01*
X119094Y34500D01*
X118978Y34311D01*
Y31786D01*
X119350Y29917D01*
X120408Y28333D01*
X121993Y27274D01*
X123862Y26902D01*
X128862D01*
X130731Y27274D01*
X132315Y28333D01*
X132668Y28860D01*
X135556D01*
X135909Y28333D01*
X137493Y27274D01*
X139362Y26902D01*
X142165D01*
Y25654D01*
X142461Y24167D01*
X143303Y22907D01*
X160321Y5889D01*
X161581Y5047D01*
X163068Y4751D01*
X248920D01*
X250407Y5047D01*
X251667Y5889D01*
X262335Y16557D01*
X263177Y17817D01*
X263473Y19304D01*
Y141224D01*
X263177Y142711D01*
X262335Y143971D01*
X251667Y154639D01*
X250407Y155481D01*
X248920Y155777D01*
D02*
G37*
%LPD*%
G36*
X251734Y143585D02*
X250681Y141045D01*
X233034D01*
X231547Y140749D01*
X230287Y139907D01*
X227747Y137367D01*
X226905Y136107D01*
X226682Y134985D01*
X225527Y134756D01*
X223860Y133642D01*
X222746Y131974D01*
X222631Y131393D01*
X133350D01*
X131863Y131097D01*
X130603Y130255D01*
X129107Y128758D01*
X128553Y128798D01*
X126567Y129593D01*
Y135805D01*
X138769Y148007D01*
X247311D01*
X251734Y143585D01*
D02*
G37*
G36*
X231764Y119869D02*
X233494D01*
X235460Y120260D01*
X235868Y120533D01*
X237744Y121166D01*
X239620Y120533D01*
X240028Y120260D01*
X241110Y120045D01*
Y109936D01*
X240917Y109884D01*
X238889Y108714D01*
X237234Y107059D01*
X236064Y105031D01*
X235458Y102770D01*
Y100430D01*
X236064Y98169D01*
X237234Y96141D01*
X238889Y94486D01*
X240917Y93316D01*
X241110Y93264D01*
Y55002D01*
X238570Y54231D01*
X238239Y54725D01*
X236655Y55784D01*
X234786Y56156D01*
X229786D01*
X227917Y55784D01*
X226333Y54725D01*
X223824Y55387D01*
X222759Y56600D01*
X222822Y57725D01*
X223900Y58803D01*
X225070Y60831D01*
X225676Y63092D01*
Y65432D01*
X225070Y67693D01*
X223900Y69721D01*
X222244Y71376D01*
X220217Y72546D01*
X217956Y73152D01*
X215616D01*
X213354Y72546D01*
X211327Y71376D01*
X209672Y69721D01*
X208502Y67693D01*
X207896Y65432D01*
Y65350D01*
X205356Y64298D01*
X195025Y74629D01*
X193765Y75471D01*
X192278Y75767D01*
X192175Y75746D01*
X189136D01*
X188773Y76289D01*
X187726Y76988D01*
X186491Y77234D01*
X182741D01*
X181912Y77069D01*
X180539Y77726D01*
X179665Y78393D01*
X179556Y80996D01*
X182703Y84143D01*
X183545Y85403D01*
X183841Y86889D01*
Y91186D01*
X184325Y91282D01*
X185909Y92341D01*
X186262Y92868D01*
X189150D01*
X189503Y92341D01*
X191087Y91282D01*
X192956Y90910D01*
X197956D01*
X199825Y91282D01*
X201409Y92341D01*
X202468Y93925D01*
X202515Y94159D01*
X209042D01*
Y93826D01*
X209648Y91565D01*
X210818Y89537D01*
X212473Y87882D01*
X214501Y86712D01*
X216762Y86106D01*
X219102D01*
X221363Y86712D01*
X223391Y87882D01*
X225046Y89537D01*
X226216Y91565D01*
X226822Y93826D01*
Y96166D01*
X226216Y98427D01*
X225046Y100455D01*
X223391Y102110D01*
X221363Y103280D01*
X219102Y103886D01*
X216762D01*
X214501Y103280D01*
X212473Y102110D01*
X212292Y101929D01*
X202515D01*
X202468Y102163D01*
X201409Y103747D01*
X199825Y104806D01*
X197956Y105178D01*
X192956D01*
X191087Y104806D01*
X190404Y104349D01*
X187793Y104814D01*
X187346Y105092D01*
X187070Y105760D01*
X204933Y123623D01*
X222631D01*
X222746Y123041D01*
X223860Y121374D01*
X225527Y120260D01*
X227494Y119869D01*
X229224D01*
Y127508D01*
X231764D01*
Y119869D01*
D02*
G37*
G36*
X50292Y101820D02*
Y101446D01*
X50898Y99185D01*
X52068Y97157D01*
X53723Y95502D01*
X55751Y94332D01*
X58012Y93726D01*
X60352D01*
X62613Y94332D01*
X63249Y94698D01*
X64808Y92666D01*
X56664Y84522D01*
X56597Y84540D01*
X54546D01*
X52564Y84009D01*
X50788Y82984D01*
X49338Y81533D01*
X48312Y79757D01*
X47781Y77776D01*
Y75725D01*
X47799Y75657D01*
X45093Y72951D01*
X42747Y73923D01*
Y97867D01*
X47752Y102872D01*
X50292Y101820D01*
D02*
G37*
G36*
X191599Y121277D02*
X177209Y106887D01*
X176367Y105627D01*
X176229Y104934D01*
X175587Y104806D01*
X174002Y103747D01*
X172944Y102163D01*
X172572Y100294D01*
Y99314D01*
X179956D01*
Y96774D01*
X172572D01*
Y95794D01*
X172944Y93925D01*
X174002Y92341D01*
X175587Y91282D01*
X176071Y91186D01*
Y88498D01*
X172870Y85297D01*
X172028Y84037D01*
X171732Y82550D01*
X171861Y81899D01*
Y76557D01*
X171460Y76289D01*
X171313Y76070D01*
X168725Y75851D01*
X168364Y76163D01*
X167082Y78286D01*
X167280Y79284D01*
Y83784D01*
X166908Y85653D01*
X165849Y87237D01*
X164265Y88296D01*
X162396Y88668D01*
X157396D01*
X155527Y88296D01*
X153943Y87237D01*
X153590Y86710D01*
X150783D01*
X150409Y87148D01*
X150349Y87237D01*
X150321Y90278D01*
X150610Y90691D01*
X153224D01*
X155191Y91082D01*
X156858Y92196D01*
X157972Y93863D01*
X158363Y95830D01*
Y104830D01*
X157972Y106797D01*
X156858Y108464D01*
X155191Y109578D01*
X153224Y109969D01*
X148224D01*
X146258Y109578D01*
X144591Y108464D01*
X143476Y106797D01*
X143085Y104830D01*
Y101070D01*
X141903Y100238D01*
X139363Y101557D01*
Y104830D01*
X138972Y106797D01*
X137858Y108464D01*
X136190Y109578D01*
X135609Y109693D01*
Y123623D01*
X190627D01*
X191599Y121277D01*
D02*
G37*
G36*
X87374Y81494D02*
X87571Y80503D01*
X88133Y79663D01*
Y78325D01*
X87571Y77485D01*
X87374Y76494D01*
Y66494D01*
X87571Y65503D01*
X88133Y64663D01*
Y63325D01*
X87571Y62485D01*
X87374Y61494D01*
Y59986D01*
X86259Y59241D01*
X83698Y56680D01*
X82042Y57123D01*
Y48260D01*
X80772D01*
Y46990D01*
X71909D01*
X72488Y44829D01*
X72709Y44445D01*
X71243Y41905D01*
X53250D01*
X51069Y44087D01*
X51828Y46920D01*
X52453Y47088D01*
X54481Y48258D01*
X56136Y49913D01*
X57306Y51941D01*
X57912Y54202D01*
Y56542D01*
X57442Y58298D01*
X81753Y82610D01*
X87374D01*
Y81494D01*
D02*
G37*
G36*
X134333Y49313D02*
X135175Y48053D01*
X137715Y45513D01*
X138975Y44671D01*
X140462Y44375D01*
X151656D01*
X153773Y41999D01*
Y40894D01*
X161660D01*
Y38354D01*
X153773D01*
Y37249D01*
X154155Y35331D01*
X155241Y33705D01*
X156867Y32619D01*
X157775Y32438D01*
Y23015D01*
X155235Y21962D01*
X149935Y27263D01*
Y34036D01*
X149639Y35523D01*
X149246Y36111D01*
Y36286D01*
X148874Y38155D01*
X147816Y39739D01*
X146231Y40798D01*
X144362Y41170D01*
X139362D01*
X137493Y40798D01*
X135909Y39739D01*
X135556Y39212D01*
X132668D01*
X132315Y39739D01*
X130731Y40798D01*
X129716Y41000D01*
Y50337D01*
X133377D01*
X134101Y50481D01*
X134333Y49313D01*
D02*
G37*
G36*
X171367Y32619D02*
X172396Y32415D01*
X172571Y31533D01*
X173413Y30273D01*
X183546Y20141D01*
X182494Y17601D01*
X169873D01*
X165544Y21929D01*
Y32438D01*
X166453Y32619D01*
X168078Y33705D01*
X169742D01*
X171367Y32619D01*
D02*
G37*
%LPC*%
G36*
X79502Y57123D02*
X77341Y56544D01*
X75313Y55374D01*
X73658Y53719D01*
X72488Y51691D01*
X71909Y49530D01*
X79502D01*
Y57123D01*
D02*
G37*
%LPD*%
D10*
X184616Y70612D02*
X191770D01*
X193730Y51238D02*
Y57912D01*
X184730Y50038D02*
Y57912D01*
X184616Y70612D02*
Y71882D01*
X193730Y57912D02*
Y61794D01*
X190500Y65024D02*
X193730Y61794D01*
X184730Y57912D02*
Y59436D01*
D13*
X145322D02*
X184730D01*
X128778Y64436D02*
Y86360D01*
X145322Y54436D02*
X167640D01*
X121666Y59436D02*
X130522D01*
X128778Y64436D02*
X130522D01*
X145322D02*
X153212D01*
X137922Y59436D02*
X145322D01*
X126362Y54436D02*
X130522D01*
X126362Y34036D02*
Y54436D01*
D14*
X137820Y127508D02*
X195704D01*
X244602Y114300D02*
Y127508D01*
X242062Y111760D02*
X242454D01*
X227330D02*
X227584D01*
X167270Y11430D02*
X188722D01*
X116840D02*
X167270D01*
X163460Y7620D02*
X167270Y11430D01*
X101346Y26924D02*
Y41494D01*
X131724Y121412D02*
X137820Y127508D01*
X131724Y100330D02*
Y121412D01*
X101346Y26924D02*
X116840Y11430D01*
X167270D02*
X176160Y20320D01*
Y39624D01*
X167640Y54436D02*
X176160Y45916D01*
Y39624D02*
Y45916D01*
X101346Y41494D02*
X121666Y59436D01*
X244602Y127508D02*
X244994D01*
X242062Y111760D02*
X244602Y114300D01*
X227584Y111760D02*
X242062D01*
X244994Y114300D02*
Y127508D01*
X242454Y111760D02*
X244994Y114300D01*
X74168Y116494D02*
X99964D01*
X141862Y34036D02*
X147066D01*
X156972Y24130D01*
X154788Y113284D02*
X160274D01*
X150724Y109220D02*
X154788Y113284D01*
X150724Y100330D02*
Y109220D01*
X195456Y98044D02*
X200914D01*
X204470Y101600D01*
Y116586D01*
X232286Y49022D02*
Y70742D01*
X254508Y92964D01*
Y134874D01*
X251460Y137922D02*
X254508Y134874D01*
X137160Y137922D02*
X251460D01*
X119380Y120142D02*
X137160Y137922D01*
X119380Y95758D02*
Y120142D01*
Y95758D02*
X128778Y86360D01*
X99964Y86494D02*
X109220D01*
X112268Y89542D01*
Y132080D01*
X123444Y143256D01*
X254000D01*
X259588Y137668D01*
Y47244D02*
Y137668D01*
X251826Y39482D02*
X259588Y47244D01*
X205486Y39482D02*
X251826D01*
X193730Y51238D02*
X205486Y39482D01*
X61108Y56494D02*
X99964D01*
X13462Y104140D02*
X61108Y56494D01*
X13462Y104140D02*
Y148590D01*
X17018Y152146D01*
X259080D01*
X264668Y146558D01*
Y39878D02*
Y146558D01*
X259080Y34290D02*
X264668Y39878D01*
X200478Y34290D02*
X259080D01*
X184730Y50038D02*
X200478Y34290D01*
X62082Y101494D02*
X99964D01*
X60452Y103124D02*
X62082Y101494D01*
X216786Y75816D02*
X242570Y101600D01*
X216786Y49022D02*
Y75816D01*
X210820Y49022D02*
X216786D01*
X209569Y50273D02*
X210820Y49022D01*
X209569Y50273D02*
Y58909D01*
X198120Y70358D02*
X209569Y58909D01*
X192024Y70358D02*
X198120D01*
X191770Y70612D02*
X192024Y70358D01*
X195704Y127508D02*
X230494D01*
X179956Y111760D02*
X195704Y127508D01*
X179956Y98044D02*
Y111760D01*
X99964Y41494D02*
X101346D01*
X188722Y11430D02*
X200660Y23368D01*
X67464Y11784D02*
Y21494D01*
Y11784D02*
X71628Y7620D01*
X163460D01*
X159896Y71120D02*
Y81534D01*
X153212Y64436D02*
X159896Y71120D01*
X169164Y65024D02*
X190500D01*
X169164D02*
Y86360D01*
X165608Y89916D02*
X169164Y86360D01*
X155448Y89916D02*
X165608D01*
X155194Y89662D02*
X155448Y89916D01*
X154686Y89662D02*
X155194D01*
X146558Y81534D02*
X154686Y89662D01*
X144396Y81534D02*
X146558D01*
X137922Y59436D02*
Y74676D01*
X134874Y77724D02*
X137922Y74676D01*
X134874Y77724D02*
Y89052D01*
X131724Y92202D02*
X134874Y89052D01*
X131724Y92202D02*
Y100330D01*
X137922Y50292D02*
Y59436D01*
Y50292D02*
X142240Y45974D01*
X161660D01*
Y39624D02*
Y45974D01*
X179956Y86889D02*
Y98044D01*
X175617Y82550D02*
X179956Y86889D01*
X52464Y21494D02*
X67464D01*
X37464D02*
X52464D01*
X31694D02*
X37464D01*
X28194Y17994D02*
X31694Y21494D01*
X22464Y17994D02*
X28194D01*
D16*
X195456Y98044D02*
D03*
X179956D02*
D03*
X232286Y49022D02*
D03*
X216786D02*
D03*
X159896Y81534D02*
D03*
X144396D02*
D03*
X141862Y34036D02*
D03*
X126362D02*
D03*
D17*
X175617Y71882D02*
D03*
X184616D02*
D03*
X184730Y57912D02*
D03*
X193730D02*
D03*
D18*
X130522Y64436D02*
D03*
Y59436D02*
D03*
Y54436D02*
D03*
X145322D02*
D03*
Y59436D02*
D03*
Y64436D02*
D03*
D19*
X109764Y112000D02*
D03*
Y97000D02*
D03*
Y82000D02*
D03*
Y67000D02*
D03*
Y52000D02*
D03*
Y37000D02*
D03*
D20*
X32264Y132000D02*
D03*
X62264D02*
D03*
X77264D02*
D03*
X92264D02*
D03*
Y17000D02*
D03*
X77264D02*
D03*
X62264D02*
D03*
X47264D02*
D03*
Y132000D02*
D03*
D21*
X150724Y100330D02*
D03*
X131724D02*
D03*
D22*
X230494Y127508D02*
D03*
X244994D02*
D03*
D23*
X176160Y39624D02*
D03*
X161660D02*
D03*
D26*
X32264Y13500D02*
D03*
D33*
X175617Y71882D02*
Y82550D01*
D34*
X119049Y78347D02*
D03*
D35*
X193549D02*
D03*
D36*
X227584Y111760D02*
D03*
X227330D02*
D03*
X74168Y116494D02*
D03*
X156972Y24130D02*
D03*
X160274Y113284D02*
D03*
X204470Y116586D02*
D03*
X60452Y103124D02*
D03*
X242570Y101600D02*
D03*
X200660Y23368D02*
D03*
M02*
