G04*
G04 #@! TF.GenerationSoftware,Altium Limited,Altium Designer,25.4.2 (15)*
G04*
G04 Layer_Color=32896*
%FSLAX44Y44*%
%MOMM*%
G71*
G04*
G04 #@! TF.SameCoordinates,E356E3B8-936D-4008-B143-5D1E530F3DD3*
G04*
G04*
G04 #@! TF.FilePolarity,Positive*
G04*
G01*
G75*
%ADD11C,0.2000*%
%ADD14C,0.2540*%
%ADD39C,0.3000*%
D11*
X84377Y62726D02*
G03*
X211587Y28640I72289J15366D01*
G01*
Y128055D02*
G03*
X84377Y93969I-54921J-49451D01*
G01*
X211549Y4348D02*
X250049D01*
X211549D02*
Y29097D01*
Y128097D02*
Y152347D01*
X250049D01*
Y4348D02*
Y62847D01*
Y93848D02*
Y152347D01*
X262100Y43944D02*
Y59504D01*
X254320Y51724D02*
X269880D01*
D14*
X169667Y126859D02*
Y111624D01*
X162049D01*
X159510Y114163D01*
Y116702D01*
X162049Y119241D01*
X169667D01*
X162049D01*
X159510Y121781D01*
Y124320D01*
X162049Y126859D01*
X169667D01*
X154432D02*
X144275D01*
X149354D01*
Y111624D01*
X139197D02*
X134118D01*
X136658D01*
Y126859D01*
X139197Y124320D01*
D39*
X266607Y79347D02*
G03*
X266607Y79347I-1118J0D01*
G01*
M02*
