G04*
G04 #@! TF.GenerationSoftware,Altium Limited,Altium Designer,25.4.2 (15)*
G04*
G04 Layer_Physical_Order=2*
G04 Layer_Color=16711680*
%FSLAX44Y44*%
%MOMM*%
G71*
G04*
G04 #@! TF.SameCoordinates,E356E3B8-936D-4008-B143-5D1E530F3DD3*
G04*
G04*
G04 #@! TF.FilePolarity,Positive*
G04*
G01*
G75*
%ADD14C,0.2540*%
%ADD34C,1.0500*%
%ADD35C,1.3000*%
%ADD36C,1.2700*%
%ADD37R,4.5000X2.3000*%
G36*
X278638Y162560D02*
Y0D01*
X1778D01*
Y13904D01*
X3464D01*
X4455Y14101D01*
X5295Y14663D01*
X5857Y15503D01*
X6054Y16494D01*
Y141494D01*
X5857Y142485D01*
X5295Y143325D01*
X4455Y143887D01*
X3464Y144084D01*
X1778D01*
Y160632D01*
X4214Y163064D01*
X278638Y162560D01*
D02*
G37*
%LPC*%
G36*
X120582Y88598D02*
X118531D01*
X116549Y88067D01*
X114773Y87041D01*
X113323Y85591D01*
X112297Y83814D01*
X111766Y81833D01*
Y79782D01*
X112297Y77801D01*
X113323Y76024D01*
X114773Y74574D01*
X116549Y73548D01*
X118531Y73018D01*
X120582D01*
X122563Y73548D01*
X124340Y74574D01*
X125790Y76024D01*
X126815Y77801D01*
X127346Y79782D01*
Y81833D01*
X126815Y83814D01*
X125790Y85591D01*
X124340Y87041D01*
X122563Y88067D01*
X120582Y88598D01*
D02*
G37*
G36*
X261596Y79538D02*
X237826D01*
Y66768D01*
X261596D01*
Y79538D01*
D02*
G37*
G36*
X228600Y152983D02*
X76200D01*
X74713Y152687D01*
X73453Y151845D01*
X57705Y136097D01*
X56863Y134837D01*
X56567Y133350D01*
Y111146D01*
X54993Y110238D01*
X53338Y108583D01*
X52168Y106555D01*
X51562Y104294D01*
Y101954D01*
X52168Y99693D01*
X53338Y97665D01*
X53616Y97388D01*
X52564Y94848D01*
X47516D01*
Y66768D01*
X97596D01*
Y78676D01*
X116382Y97461D01*
X175771D01*
X176743Y95115D01*
X154225Y72597D01*
X153383Y71337D01*
X153087Y69850D01*
Y32153D01*
X151513Y31244D01*
X149858Y29589D01*
X148688Y27561D01*
X148082Y25300D01*
Y22960D01*
X148688Y20699D01*
X149858Y18671D01*
X151513Y17016D01*
X153541Y15846D01*
X155802Y15240D01*
X158142D01*
X160403Y15846D01*
X162431Y17016D01*
X164086Y18671D01*
X165256Y20699D01*
X165862Y22960D01*
Y25300D01*
X165256Y27561D01*
X164086Y29589D01*
X162431Y31244D01*
X160857Y32153D01*
Y68241D01*
X184997Y92381D01*
X192721D01*
X192851Y92365D01*
X192866Y89848D01*
X192727Y89810D01*
X190567Y89232D01*
X188505Y88041D01*
X186822Y86358D01*
X185632Y84297D01*
X185016Y81998D01*
Y79617D01*
X185632Y77318D01*
X186822Y75257D01*
X188505Y73574D01*
X190567Y72384D01*
X192866Y71768D01*
X195246D01*
X195310Y71785D01*
X196418Y70566D01*
X197025Y69615D01*
X196775Y68362D01*
Y31391D01*
X195201Y30482D01*
X193546Y28827D01*
X192376Y26799D01*
X191797Y24638D01*
X209523D01*
X208944Y26799D01*
X207774Y28827D01*
X206119Y30482D01*
X204545Y31391D01*
Y66753D01*
X209170Y71378D01*
X211516Y70405D01*
Y66768D01*
X235286D01*
Y80808D01*
X236556D01*
Y82078D01*
X261596D01*
Y94848D01*
X251852D01*
X250403Y97388D01*
X250854Y98169D01*
X251460Y100430D01*
Y102770D01*
X250854Y105031D01*
X249684Y107059D01*
X248029Y108714D01*
X246455Y109622D01*
Y135128D01*
X246159Y136615D01*
X245317Y137875D01*
X231347Y151845D01*
X230087Y152687D01*
X228600Y152983D01*
D02*
G37*
G36*
X209523Y22098D02*
X201930D01*
Y14505D01*
X204091Y15084D01*
X206119Y16254D01*
X207774Y17909D01*
X208944Y19937D01*
X209523Y22098D01*
D02*
G37*
G36*
X199390D02*
X191797D01*
X192376Y19937D01*
X193546Y17909D01*
X195201Y16254D01*
X197229Y15084D01*
X199390Y14505D01*
Y22098D01*
D02*
G37*
%LPD*%
G36*
X238685Y133519D02*
Y114491D01*
X236145Y114157D01*
X235868Y115191D01*
X234698Y117219D01*
X233043Y118874D01*
X231215Y119929D01*
Y121920D01*
X230919Y123407D01*
X230077Y124667D01*
X214075Y140669D01*
X212815Y141511D01*
X211328Y141807D01*
X95596D01*
X94109Y141511D01*
X92849Y140669D01*
X77094Y124914D01*
X75438Y125357D01*
Y117764D01*
X83031D01*
X82588Y119420D01*
X97205Y134037D01*
X172215D01*
X173187Y131691D01*
X163200Y121704D01*
X161444Y122174D01*
X159104D01*
X156843Y121568D01*
X154815Y120398D01*
X153160Y118743D01*
X151990Y116715D01*
X151384Y114454D01*
Y112114D01*
X151990Y109853D01*
X153160Y107825D01*
X153215Y107771D01*
X152163Y105231D01*
X114772D01*
X113286Y104935D01*
X112026Y104093D01*
X99943Y92010D01*
X97596Y92982D01*
Y94848D01*
X68340D01*
X67288Y97388D01*
X67566Y97665D01*
X68736Y99693D01*
X69342Y101954D01*
Y104294D01*
X68775Y106409D01*
X69045Y106819D01*
X70703Y108230D01*
X70737Y108210D01*
X72898Y107631D01*
Y116494D01*
Y125357D01*
X70737Y124778D01*
X68709Y123608D01*
X67054Y121953D01*
X66877Y121645D01*
X64337Y122326D01*
Y131741D01*
X77809Y145213D01*
X226991D01*
X238685Y133519D01*
D02*
G37*
G36*
X201125Y124893D02*
X201039Y124870D01*
X199011Y123700D01*
X197356Y122045D01*
X196186Y120017D01*
X195580Y117756D01*
Y115416D01*
X195943Y114061D01*
X187113Y105231D01*
X168385D01*
X167333Y107771D01*
X167388Y107825D01*
X168558Y109853D01*
X169164Y112114D01*
Y114454D01*
X168694Y116210D01*
X179917Y127433D01*
X200791D01*
X201125Y124893D01*
D02*
G37*
%LPC*%
G36*
X83031Y115224D02*
X75438D01*
Y107631D01*
X77599Y108210D01*
X79627Y109380D01*
X81282Y111035D01*
X82452Y113063D01*
X83031Y115224D01*
D02*
G37*
%LPD*%
D14*
X227330Y111760D02*
Y121920D01*
X227584Y80808D02*
Y111760D01*
Y80808D02*
X236556D01*
X213106D02*
X227584D01*
X211328Y137922D02*
X227330Y121920D01*
X95596Y137922D02*
X211328D01*
X74168Y116494D02*
X95596Y137922D01*
X156972Y24130D02*
Y69850D01*
X183388Y96266D01*
X214376D01*
X217170Y99060D01*
Y122428D01*
X208280Y131318D02*
X217170Y122428D01*
X178308Y131318D02*
X208280D01*
X160274Y113284D02*
X178308Y131318D01*
X203962Y116586D02*
X204470D01*
X188722Y101346D02*
X203962Y116586D01*
X114772Y101346D02*
X188722D01*
X94234Y80808D02*
X114772Y101346D01*
X72556Y80808D02*
X94234D01*
X60452Y103124D02*
Y133350D01*
X76200Y149098D01*
X228600D01*
X242570Y135128D01*
Y101600D02*
Y135128D01*
X200660Y23368D02*
Y68362D01*
X213106Y80808D01*
D34*
X119049Y78347D02*
D03*
D35*
X193549D02*
D03*
D36*
X227584Y111760D02*
D03*
X227330D02*
D03*
X74168Y116494D02*
D03*
X156972Y24130D02*
D03*
X160274Y113284D02*
D03*
X204470Y116586D02*
D03*
X60452Y103124D02*
D03*
X242570Y101600D02*
D03*
X200660Y23368D02*
D03*
D37*
X72049Y78347D02*
D03*
X236049D02*
D03*
M02*
